<?xml version="1.0" encoding="utf-8"?>
<!-- Generator: Adobe Illustrator 28.2.0, SVG Export Plug-In . SVG Version: 6.00 Build 0)  -->
<svg version="1.1" id="Capa_1" xmlns="http://www.w3.org/2000/svg" xmlns:xlink="http://www.w3.org/1999/xlink" x="0px" y="0px"
	 viewBox="0 0 1542.1 1227.1" style="enable-background:new 0 0 1542.1 1227.1;" xml:space="preserve">
<style type="text/css">
	.st0{fill-rule:evenodd;clip-rule:evenodd;}
	.st1{fill-rule:evenodd;clip-rule:evenodd;fill:#FDD000;}
</style>
<g>
	<path class="st0" d="M1392.7,981.4v-18.3c7.8-9.3,15.6-20.7,23.3-33.9c-9.3,5.5-17.1,10.4-23.3,14.6v-23.6c2.3-1.3,4.6-2.6,7-3.9
		c4.3-2.3,8.3-4.2,12.2-5.7c3.9-1.6,6.6-2.4,8.2-2.6c2.1-0.2,4.4,0.8,6.8,3c2.4,2.1,3.7,4.3,3.9,6.5c0.1,0.7-0.1,1.2-0.5,1.8
		c-0.5,0.6-1.3,1.3-2.6,2.3l-3.4,2.7l4.2,6.9c0.6,0.8,1,1.5,1.2,2.1c0.2,0.6,0.4,1.2,0.4,1.7c0.2,1.6-1.9,6.4-6.1,14.6
		c-4.3,8.2-6.2,14.4-5.7,18.6c0.1,1.6,0.8,2.8,1.9,3.5c1.1,0.7,2.6,1,4.4,0.8c2.8-0.3,6.1-2.2,10.1-5.6c3.9-3.4,9.4-9.4,16.3-17.9
		l1.1,8.8c-12,16.9-20.5,27.9-25.3,32.8c-4.9,5-9.2,7.7-13,8.1c-3,0.4-5.7-0.5-8.1-2.7c-2.3-2-3.6-4.9-4-8.4
		c-0.4-3.3,0.4-10.1,2.5-20.5l0-0.4C1399.9,972.5,1396.1,977.4,1392.7,981.4 M1392.7,920.3v23.6c-7.3,5-12.5,9.1-15.7,12.4
		c-5.7,6-8.2,12.3-7.5,18.8c0.2,1.7,0.7,3,1.5,4c0.7,1,1.6,1.4,2.6,1.2c3.2-0.3,9-5.4,17.4-15.2c0.6-0.6,1.1-1.4,1.7-2v18.3
		c-3,3.7-5.7,6.7-8,9.3c-5.2,5.4-9.2,8.2-12.1,8.6c-2.7,0.2-6.3-2.8-11.1-9.2c-2.8-3.8-4.9-7.5-6.3-11.1c-1.8,2.6-3.5,5-5.1,7.1
		v-14.2c1-1,2.1-2.2,3.1-3.4c0.2-3.6,1.5-7.5,3.6-12c2.9-5.8,7-11.7,12.7-17.6c4.2-4.5,8.8-8.6,13.7-12.2
		C1386.3,924.4,1389.5,922.3,1392.7,920.3 M1350.2,906.5v-21.3c0.2-0.3,0.4-0.5,0.8-0.6c0.8-0.5,3.2-1,6.9-1.4
		c1.4-0.2,2.5-0.1,3.3,0.2c0.8,0.3,1.3,0.8,1.3,1.5c0.2,1.2-0.4,2.9-1.5,5.4c-1.1,2.4-2.8,5.2-4.9,8.3l-0.4,0.6
		C1353.7,902.1,1351.9,904.6,1350.2,906.5 M1202,970.3c2.9-2.3,5.5-4.6,7.8-6.7c5.4-5.4,8-9.6,7.6-12.8c0-0.8-0.2-1.4-0.4-1.7
		c-0.4-0.4-0.7-0.5-1.1-0.4c-3.8,0.4-8.4,3.3-13.9,8.6v-15.3c4.9-2.6,10-4.2,15.1-4.8c4.9-0.5,8.5-0.3,11.1,0.9
		c2.4,1.2,3.8,3.3,4.2,6.5c0.7,7-3.3,15-12.1,24.1c-5.3,5.4-11.4,10.1-18.3,14.2V970.3z M1350.2,885.1v21.3c-2.7,3.1-5.1,4.8-7,5
		c-1.6,0.2-2.9,0.2-3.9,0c-1-0.2-1.5-0.6-1.5-1.2c-0.1-0.3,1.3-2.8,4-7.5c2.7-4.7,4.9-9.4,6.4-14.2
		C1349,886.9,1349.6,885.8,1350.2,885.1 M1350.2,971.8c-2.5,2.6-4.8,4.9-7.1,6.8c-5.4,4.7-9.6,7.2-12.7,7.6
		c-2.9,0.3-5.3-0.3-7.4-1.9c-1.9-1.6-3-3.9-3.4-6.8c0-0.9-0.1-1.9,0-3c0-1.1,0.2-2.3,0.4-4c7.4-8.1,12.9-15.7,16.9-22.6
		c3.9-6.9,5.7-12.3,5.2-16.2c-0.2-1.9-0.9-3.3-2.1-4.1c-1.1-0.9-2.9-1.2-5.1-0.9c-3,0.3-5.6,1.4-8.2,3.2c-2.5,1.7-5.3,4.8-8.5,8.8
		c-6.2,7.9-10.5,15.3-12.8,22c-1.5,4.1-2.3,8.4-2.5,12.8c-5.4,6.2-9.6,10.7-12.5,13.6c-4,3.9-7,5.9-9,6.2c-1.7,0.2-3.1-0.2-4-1.1
		c-1-0.9-1.6-2.4-1.9-4.4c-0.2-2.7,0.6-6.4,2.5-11.2c1.9-4.8,4.6-9.5,7.9-14.1c1-1.3,2.4-3.1,4.3-5.1c3-3.7,4.5-6.3,4.2-8
		c-0.4-4.6-1.7-7.9-3.6-9.9c-1.9-2.1-4.6-2.9-8.1-2.5c-1,0.1-2.8,0.5-5.3,0.9c-0.6,0.2-1.2,0.2-1.5,0.3l-16.5,3c0.6-1.6,1-3,1.3-4
		c0.2-1,0.3-1.8,0.3-2.3c0-0.7-0.4-1.4-0.9-1.8c-0.6-0.5-1.2-0.6-1.9-0.6c-4.2,0.5-9,4.6-14.5,12.2c-5.6,7.7-8,14.2-7.4,19.7
		c0.1,1.4,0.8,2.8,1.6,3.8c0.9,1.1,2.2,2.1,4,2.9l-10.8,13.5c-4,4.3-8,7.8-11.8,10.9c-6.5,5.1-12.3,8-17.3,8.8v16.9
		c4.7-1.9,9.5-4.8,14.3-8.9c6.9-5.9,14.6-14.6,22.8-26.2c3.3-4,7.3-9.5,12.5-16.4l2.3-3.3c2.6-0.8,5.5-1.6,8.6-2.5
		c2.9-0.9,6.7-2.2,11.2-3.9c-6.5,8.8-11,16.2-13.5,22.4c-2.5,6.2-3.3,12.1-2.7,17.9c0.5,4.6,2.2,8.2,5,11c2.8,2.8,6,4,9.5,3.6
		c4-0.5,9-3.9,15.2-10.3c4.5-4.7,10-11.5,16.5-20.2c1.1,7.3,3.3,13,6.5,16.9c3.5,4.5,8.1,6.3,13.7,5.7c5.4-0.6,11-3.9,17-9.9
		c2.9-2.8,6-6.5,9.4-11V971.8z M1186.4,980.9c6.1-3.6,11.2-7.2,15.6-10.6v12.4c-4.7,2.7-9.9,5-15.4,7.1l0.2,1
		c0.5,4.6,2.1,8.2,4.7,10.6c2.6,2.4,5.9,3.5,9.9,3c0.1,0,0.3,0,0.6-0.1v16.9c-2.8,1-5.4,1.7-8.1,2.1c-7.4,0.8-13.1-0.9-17.5-5.2
		c-3.9-3.8-6.3-9.3-7.6-16.7c-6.2,7.9-12.1,14.3-17.5,19.3c-7.9,7.3-14.7,11.1-20.2,11.9c-3.9,0.4-7-0.4-9.4-2.2
		c-2.3-2.1-3.8-5.2-4.2-9.3c-0.4-3.4-0.2-7.2,0.6-11.6c0.8-4.3,2-8.9,3.8-13.6c-0.6,0.7-1.3,1.3-2.1,2c-0.3,0.2-0.6,0.6-1,0.9
		c-8.8,12.4-16.7,21.6-23.9,27.8c-4.9,4.1-9.7,7-14.4,8.9v-16.8c5-0.8,10.8-3.7,17.4-8.9c5.6-4.4,11.4-10.2,17.3-17v-0.3
		c4.4-6.1,8.4-11.7,11.7-16.7c3.3-5,6.2-9.9,8.9-14.5c-2.1-0.1-4-0.2-5.8-0.1c-1.7,0.1-3.3,0.2-4.7,0.3l-4,0.5c-0.6,0-1.2,0-1.5-0.2
		c-0.4-0.2-0.6-0.4-0.6-0.9c-0.2-1.4,0.9-4.5,3.4-9.3c2.4-4.8,4.7-8.1,6.8-10.1c1.4-1.4,3.7-2.5,6.9-3.4c3-1,7.5-1.9,13.2-2.6
		c0.5-0.9,1.2-2.3,2.1-3.9c5.9-10.6,12.6-16.4,20.1-17.3c1.2-0.1,2.2,0.1,3.1,0.7c0.9,0.6,1.4,1.2,1.5,2.1c0.1,0.8,0,1.8-0.3,2.6
		c-0.2,0.9-0.8,1.9-1.5,3l-7.1,11.2c3.2-0.2,5.7-0.1,7.6,0.4c2,0.5,3,1.1,3.1,2.1c0.1,0.9-0.9,3.4-3.1,7.3c-2,3.9-4.5,7.6-7.5,11.2
		c-1.8,2.1-3.5,3.6-5,4.4c-1.6,0.9-3.6,1.4-6.3,1.7c-1.9,0.2-3.3,0.3-4,0.4c-0.9,0.1-1.4,0.1-2,0.2c-4.8,7.8-8.5,15.8-10.8,24
		c-2.4,8.2-3.3,15.2-2.6,20.9c0.2,2,0.8,3.5,1.9,4.4c1,1,2.4,1.4,4.1,1.2c2.7-0.3,6.7-2.9,12-7.7c3.7-3.3,8.2-8,13.5-13.8
		c0.3-4,1.1-7.9,2.5-11.9c2.3-6.5,6.1-13.1,11.3-19.6c5.3-6.4,10.9-11.5,16.8-15.2c1.1-0.6,2.2-1.2,3.2-1.8v15.3
		c-0.6,0.5-1,0.9-1.5,1.4C1194.4,964.9,1189.7,972.3,1186.4,980.9 M1080.4,996.8c7-4,13.1-8.7,18.3-14.1
		c8.9-9.1,12.9-17.1,12.2-24.1c-0.5-3.1-1.9-5.2-4.3-6.5c-2.5-1.2-6.1-1.5-11-1c-5.2,0.7-10.3,2.2-15.2,4.9v15.3
		c5.5-5.3,10.1-8.1,13.9-8.6c0.5-0.1,0.8,0,1.1,0.4c0.2,0.3,0.5,0.9,0.5,1.7c0.4,3.2-2.2,7.4-7.7,12.8c-2.2,2.2-4.9,4.4-7.8,6.7
		V996.8z M1080.4,956.1v15.3c-0.5,0.5-0.9,0.9-1.4,1.5c-6.1,6.2-10.8,13.6-14.1,22.2c6-3.7,11.2-7.3,15.5-10.6v12.4
		c-4.7,2.7-9.8,5.1-15.4,7.2l0.2,1c0.5,4.7,2.1,8.2,4.7,10.6c2.6,2.5,5.9,3.5,9.9,3c0.2,0,0.4,0,0.6,0v16.8
		c-2.7,1.1-5.4,1.7-8.1,2.1c-7.4,0.8-13.1-0.9-17.6-5.2c-3.8-3.7-6.3-9.3-7.5-16.4c-5.8,7.9-10.9,14.1-15.2,18.6
		c-6.2,6.4-11.3,9.8-15.3,10.2c-3.4,0.4-6.7-0.7-9.5-3.5c-2.8-2.8-4.6-6.5-5-11.1c-0.6-5.8,0.3-11.7,2.7-17.9
		c2.5-6.1,7-13.6,13.6-22.3c-4.6,1.7-8.4,3-11.3,3.9c-3.1,0.9-6,1.7-8.5,2.4l-2.3,3.2c-6.5,9-11.7,15.5-15,19.7
		c-7.5,10.2-13.7,18.1-18.9,23.4c-6.1,6.4-11.2,9.9-15.2,10.4c-3.5,0.4-6.7-0.8-9.5-3.6c-2.8-2.8-4.6-6.5-5-11
		c-0.6-5.7,0.3-11.7,2.7-17.8c2.5-6.2,7-13.6,13.6-22.4c-4.6,1.6-8.4,3-11.2,3.9c-3.1,0.9-5.9,1.7-8.6,2.5l-2.3,3.2
		c-5.1,6.9-9.3,12.5-12.5,16.5c-8.1,11.6-15.8,20.4-22.7,26.2c-4.9,4.1-9.7,7-14.5,8.9v-16.8c5.1-0.8,10.8-3.7,17.4-8.8
		c3.9-3,7.9-6.7,11.7-11l10.8-13.5c-1.6-0.8-3-1.8-3.8-2.9c-0.9-1.1-1.5-2.4-1.6-3.8c-0.6-5.4,1.9-12.1,7.3-19.7
		c5.6-7.6,10.4-11.7,14.6-12.2c0.7,0,1.4,0.1,1.9,0.5c0.6,0.5,0.9,1.1,1,1.8c0.1,0.4,0,1.2-0.3,2.3c-0.2,1-0.7,2.4-1.2,4l16.4-3
		c0.3,0,0.8-0.1,1.5-0.3c2.5-0.5,4.2-0.8,5.3-0.9c3.7-0.4,6.2,0.4,8.2,2.4c1.9,2.1,3,5.4,3.5,10c0.2,1.6-1.1,4.3-4.2,7.9
		c-1.9,2-3.4,3.8-4.3,5.1c-3.3,4.6-5.9,9.3-7.8,14.1c-2,4.8-2.8,8.5-2.5,11.2c0.2,2,0.8,3.5,1.9,4.5c1,0.9,2.3,1.2,4.1,1
		c2-0.2,4.9-2.3,9-6.2c3-2.9,7.5-7.8,13.2-14.4l7.6-9.5c-1.7-0.9-3-1.8-3.9-2.9c-0.9-1.2-1.5-2.4-1.7-3.8c-0.6-5.5,1.9-12,7.4-19.7
		c5.6-7.7,10.4-11.8,14.5-12.2c0.7-0.1,1.3,0.1,1.8,0.5c0.6,0.5,0.9,1,1,1.7c0.1,0.5,0,1.2-0.3,2.3c-0.3,1.1-0.7,2.4-1.3,4l16.4-3
		c0.4,0,0.9-0.1,1.5-0.3c2.5-0.4,4.2-0.8,5.3-0.9c3.6-0.4,6.3,0.5,8.2,2.5c2,2.1,3.1,5.4,3.5,9.9c0.3,1.6-1.2,4.3-4.2,7.9
		c-1.9,2.1-3.3,3.9-4.3,5.2c-3.3,4.5-5.9,9.3-7.9,14c-2,4.8-2.8,8.5-2.4,11.2c0.2,2,0.9,3.4,1.9,4.4c0.9,0.9,2.3,1.2,4.1,1
		c2-0.2,4.9-2.3,9-6.2c2.6-2.6,6.4-6.7,11.3-12.2c0.3-4,1.2-7.9,2.5-11.9c2.3-6.5,6-13,11.2-19.5c5.4-6.5,10.9-11.6,16.8-15.2
		C1078.3,957.2,1079.4,956.6,1080.4,956.1 M877.3,1020.6c7-4,13.1-8.7,18.3-14.2c8.9-9.1,13-17.1,12.2-24.1
		c-0.4-3.1-1.9-5.3-4.2-6.5c-2.6-1.2-6.2-1.5-11.1-1c-5.1,0.6-10.2,2.2-15.2,4.8v15.4c5.5-5.3,10.1-8.1,14-8.6
		c0.4-0.1,0.8,0.1,1,0.4c0.3,0.4,0.5,0.9,0.5,1.8c0.5,3.2-2.2,7.4-7.6,12.8c-2.2,2.2-4.9,4.4-7.9,6.7V1020.6z M877.3,979.7v15.4
		c-0.5,0.4-0.9,0.9-1.4,1.4c-6.1,6.2-10.8,13.7-14.1,22.3c6-3.7,11.2-7.2,15.5-10.6v12.4c-4.7,2.7-9.8,5.1-15.3,7.1l0.1,1
		c0.6,4.6,2.1,8.2,4.8,10.6c2.5,2.4,5.8,3.5,9.9,3c0.1,0,0.4,0,0.5,0v16.8c-2.7,1.1-5.3,1.8-8.1,2c-7.3,0.9-13.1-0.8-17.5-5.2
		c-3.7-3.6-6.3-9-7.5-16.1v-16.7c0.4-2.2,1.2-4.5,1.9-6.8c2.3-6.6,6-13.1,11.2-19.5c5.4-6.4,11-11.5,16.9-15.2
		C875.3,980.9,876.3,980.3,877.3,979.7 M844.2,937.9V923c0.3,0.9,0.6,1.7,0.7,2.8C845.2,928.9,845,933,844.2,937.9 M844.2,923v14.9
		c-0.7,5-2.1,10.9-4,17.7c-3.8,13.5-9.4,28.9-16.9,46.2c0.5,0,1.6-0.3,3.3-0.5c1.6-0.3,3-0.5,3.9-0.5c1.1-0.2,2.2-0.3,3.3-0.4
		c1.2-0.1,2.3-0.2,3.6-0.2c-1.9,4.9-3.9,9.6-6,14.1c-2,4.4-3.6,7.6-4.8,9.4c-1.4,2-7,4.9-17.4,8.7l-0.6,0.3
		c-12.5,22-24.6,40.1-36.2,54.3c-11.7,14.2-20.2,21.7-25.5,22.3c-1.2,0.2-2.4-0.2-3.2-0.9c-1-0.8-1.5-1.7-1.5-2.7
		c-0.7-6.5,1.7-14,7.4-22.6c5.6-8.7,12.4-14.4,20-17.4c2.9-4,5.9-8.3,8.9-13c3.1-4.7,6.4-9.9,10-15.8c-6.4,1.5-12,2.7-16.7,3.6
		c-4.7,0.9-9.2,1.6-13.1,2c-2.6,0.3-4.6,0.2-6.1-0.4c-1.4-0.5-2.2-1.4-2.4-2.6c-0.9-8,2.8-14.6,10.8-20c8-5.3,23-10.7,44.8-16.4
		c6.3-14.1,10.5-25.5,13.4-34c2.7-8.6,4-14.7,3.7-18.3c-0.3-1.2-0.7-2-1.6-2.4c-0.8-0.5-2.3-0.5-4.3-0.3c-8.2,1-19.4,4.2-33.5,9.6
		c-14.1,5.4-29.1,12.4-45.2,20.9l10-1.3l3.2-0.4c0.9-0.1,1.5-0.1,2,0.3c0.6,0.3,0.9,0.8,0.9,1.4c0.2,1.2-2.9,3.2-9.4,6
		c-2.8,1.2-5.1,2.1-6.6,2.8c-2.7,1.2-6,2.8-10.2,5.1c-4,2.2-6.6,3.4-7.9,3.5c-1.7,0.2-3.1-0.1-4.3-1c-1-1-1.7-2.3-1.9-3.8
		c-0.1-1.6,0.3-4.6,1.4-9.3c1-4.6,2.5-9.5,4.4-14.6c1.9-5,4-9,6.3-12.3c2-3.2,4.6-5.7,7.4-7.5c2.2-1.4,6.3-3.5,12.3-6.2
		c5.8-2.7,12.4-5.4,19.6-8.1c11.1-4.3,21.4-7.6,30.7-10.2c9.5-2.6,18.1-4.3,25.7-5.2c8.7-1,14.6-1,17.7,0.2
		C841.9,919.1,843.5,920.6,844.2,923 M844.2,1023.1c-0.7,4.4-1,8.7-0.5,12.9c0.1,1.4,0.3,2.6,0.5,3.8V1023.1z M537.2,1098.8v-16.9
		c5.1-0.8,10.8-3.7,17.4-8.9c4.5-3.4,8.9-7.7,13.5-12.8c3.7-12.1,7.7-21.5,11.9-28c4.1-6.5,8.4-10,12.7-10.5c2.6-0.4,4.9-0.2,7,0.6
		c2.2,0.6,3.3,1.6,3.3,2.8c0.2,1.3-1,4.2-3.5,8.5c-2.4,4.3-6.2,10.1-11.1,17.4c-1.4,2.1-2.5,4.2-3.1,6.5c-0.7,2.2-0.9,4.3-0.8,6.3
		l0.1,0.6c10.3-15.5,20.4-28.4,30.1-38.6c9.8-10.3,16.6-15.6,20.5-16.1c1.5-0.2,3.1,1,4.7,3.6c1.7,2.5,2.6,5.3,3.1,8.5
		c0.3,3.5-1.4,7.7-5.2,13c-2,2.7-3.5,4.9-4.4,6.5c-2.6,4.6-4.6,9.1-6.2,13.5c-1.5,4.3-2.2,7.3-2,8.9c0,1.4,0.4,2.4,1.4,3
		c0.7,0.8,1.7,1,3,0.8c1.7-0.2,4.5-2.3,8.6-6.3c4.1-4.1,9.9-10.6,17.5-19.6l1.2,9.2c-12.4,17.6-20.9,28.6-25.7,33.4
		c-4.8,4.6-9.3,7.2-13.1,7.7c-3.2,0.4-5.9-0.6-8-3c-2.3-2.4-3.6-5.6-4.1-9.7c-0.5-4.1,0.5-9.4,2.7-15.8c2.2-6.4,5.7-14.2,10.8-23.5
		c-8,9.6-15.8,20.5-23.3,32.7c-7.6,12.1-12.3,18.3-14.3,18.6c-3.1,0.3-6-1.8-8.5-6.4c-2-3.6-3.5-8.3-4.5-13.9
		c-6.2,8.1-12.1,14.5-17.4,19.2C546.8,1093.9,542,1096.9,537.2,1098.8 M537.2,1060.2c7-4,13.1-8.7,18.4-14
		c8.8-9.2,12.8-17.1,12.1-24.2c-0.3-3.1-1.7-5.2-4.3-6.5c-2.4-1.2-6.1-1.5-11-0.9c-5.2,0.6-10.1,2.2-15.2,4.8v15.3
		c5.6-5.3,10.2-8.1,14-8.6c0.5,0,0.8,0.1,1,0.5c0.4,0.3,0.5,0.9,0.6,1.7c0.3,3.1-2.2,7.4-7.7,12.8c-2.2,2.1-4.9,4.3-7.9,6.6V1060.2z
		 M537.2,1019.4v15.3c-0.5,0.5-0.9,1-1.4,1.4c-6.1,6.3-10.8,13.7-14.1,22.2c6.1-3.6,11.3-7.2,15.5-10.6v12.4
		c-4.7,2.7-9.8,5.1-15.3,7.2l0.1,1c0.5,4.7,2,8.1,4.7,10.6c2.6,2.5,5.9,3.4,9.9,3c0.2,0,0.4,0,0.5,0v16.9c-2.7,1-5.4,1.7-8,2
		c-7.3,0.8-13.1-0.9-17.5-5.2c-4.4-4.3-7-10.9-8.1-19.8c-0.7-6.6,0.1-13.2,2.4-19.8c2.3-6.6,6-13.1,11.3-19.5
		c5.3-6.5,11-11.6,16.8-15.2C535.2,1020.6,536.3,1020,537.2,1019.4 M405.2,1114.7v-17.2c0.6-0.2,1.1-0.6,1.7-1
		c2.4-1.6,4.6-3.8,6.8-6.5c0-0.3-0.1-0.7-0.3-1.2c-0.5-2.4-0.7-4.1-0.8-5.1c-0.4-3.7,0-8,1.2-13.3c1-5.2,2.9-11.1,5.5-17.9
		c-5.3,3.1-10,6.6-14,10.6V1038c4.8-2.8,9.1-4.4,13.2-4.9c3.4-0.4,6.7,0,9.8,1.3c3,1.2,4.7,2.6,4.8,4.3c0,0.4-0.3,1.1-1.1,2.3
		c-0.8,1.1-1.5,2.2-2,3l0.4,0c2.2-0.3,3.9,0.3,5,1.6c1,1.3,1.8,3.8,2.1,7.3c0.7,4.8,0.3,10.1-1.1,15.7c-1.1,5.6-3.3,11.5-6.1,18
		c3-0.5,6.4-2.4,10.2-5.9c3.9-3.4,8.9-8.9,14.8-16.6l0.9,10.4c-6.3,8-11.4,13.8-15.6,17.3c-4.2,3.5-8,5.5-11.7,6
		c-1,0.1-1.9,0.1-2.5,0.2c-0.7,0-1.3,0.1-1.8,0.2c-3.8,5.3-7.6,9.4-11.7,12.4C410.4,1112.5,407.8,1113.9,405.2,1114.7 M405.2,1038
		v25.2c-2.6,2.7-5,5.5-7,8.5c-5.3,7.8-7.6,14.6-7,20.6c0.3,2.6,1.1,4.6,2.6,5.8c1.5,1.2,3.5,1.6,6,1.4c1.7-0.2,3.5-0.8,5.3-1.8v17.2
		c-1.6,0.5-3.1,0.9-4.6,1c-6,0.8-11.4-1.4-16-6.2c-3.9-4.2-6.4-9.4-7.8-15.9c-14,19.2-23.9,29.1-30,29.8c-3.2,0.4-5.7-0.6-7.4-2.8
		c-1.6-2.3-2.9-6.4-3.5-12.4c-0.4-3.2-0.5-6.3-0.7-9.4c-0.1-3.1,0-6.3,0.2-9.5c-4.9,6.5-9.1,12.1-12.9,16.6v-16.6
		c2.7-3.1,5.8-6.6,9.2-10.6c0.3-0.2,0.5-0.5,0.8-0.7c4.5-5.3,7.6-11.3,8.8-18c-7.4,3.8-13.7,7.5-18.8,10.9v-22.7
		c5.4-3.2,9.9-5.1,13.5-5.5c1.9-0.2,3.7-0.1,5.1,0.5c1.4,0.6,2.9,1.7,4.2,3.2c8.6-20.2,15.5-35.2,20.3-44.7
		c5-9.6,8.4-14.5,10.3-14.8c1.8-0.2,3.4,0.6,5.1,2.2c1.7,1.8,2.7,3.8,2.9,6.3c0.6,5.4-6.3,21.8-20.8,49.5l-2.7,4.7
		c-3.3,6.5-5.9,14.5-7.8,24.1c-1.7,9.7-2.5,17.5-1.7,23.3c0.1,1.4,0.7,2.4,1.5,3.3c1,0.9,1.9,1.3,3,1.2c2.8-0.4,9.7-6.7,20.5-19.1
		c0.1-0.1,0.3-0.3,0.4-0.4c0.4-3.7,1.3-7.6,2.8-11.6c2.4-6.9,6.1-13.3,10.9-19.1c4.1-5,8.8-9.2,14-12.5
		C404.4,1038.6,404.8,1038.3,405.2,1038 M322.6,1048.2v22.7c-5.2,3.5-9.2,6.8-11.9,9.8c-5.3,6-7.5,12.9-6.7,20.4
		c0.2,1.2,0.3,1.9,0.6,2.4c0.3,0.5,0.6,0.6,1.2,0.5c1.8-0.2,4.7-2.3,8.7-6.2c2.2-2.2,4.9-5,8.1-8.5v16.6c-2.9,3.6-5.3,6.5-7.5,8.9
		c-4.9,5.6-8.5,8.4-10.5,8.6c-2.9,0.4-6-2.6-9.4-8.9c-2.5-4.7-4.3-10-5.6-16c-4.6,5.5-8.4,9.7-11.8,12.4c-4.1,3.5-8,5.4-11.6,5.9
		c-1.1,0.1-1.9,0.2-2.5,0.2c-0.7,0.1-1.4,0.1-1.9,0.2c-3.7,5.4-7.5,9.4-11.6,12.4c-2.5,1.8-5.1,3.2-7.7,4.1v-17.1
		c0.5-0.4,1.1-0.7,1.6-1.1c2.4-1.6,4.7-3.8,6.8-6.5c0-0.3-0.2-0.7-0.3-1.2c-0.4-2.4-0.7-4.2-0.8-5.1c-0.5-3.6,0-8,1.1-13.2
		c1.2-5.2,2.9-11.2,5.5-17.9c-5.3,2.9-9.9,6.6-13.9,10.7v-25.2c4.7-2.8,9-4.6,13.1-5c3.5-0.4,6.8,0,9.9,1.3c3,1.2,4.6,2.7,4.9,4.3
		c0,0.4-0.4,1.2-1.1,2.3c-0.8,1.2-1.4,2.2-1.9,3l0.3-0.1c2.2-0.2,3.9,0.3,5,1.7c1.1,1.3,1.8,3.8,2.2,7.3c0.6,4.8,0.2,10-1,15.7
		c-1.3,5.6-3.3,11.6-6.1,17.9c3-0.4,6.4-2.4,10.2-5.8c3-2.6,6.5-6.4,10.7-11.5c0.1-3.6,1.1-7.2,3-10.9c2.5-4.8,6.5-9.9,12.3-15
		c6.1-5.7,12.1-10.3,17.9-13.7L322.6,1048.2z M242.5,1057.1v25.2c-2.6,2.6-4.9,5.4-7,8.4c-5.3,7.7-7.6,14.6-7,20.5
		c0.3,2.7,1.2,4.6,2.7,5.8c1.4,1.2,3.4,1.6,6,1.3c1.7-0.2,3.4-0.7,5.3-1.7v17.1c-1.6,0.5-3.2,0.8-4.7,1c-6,0.7-11.3-1.4-15.9-6.3
		c-0.6-0.6-1.2-1.2-1.6-1.9v-45.9c1.9-3.6,4.2-7.1,7.1-10.4c4-5,8.7-9.2,13.9-12.5C241.6,1057.6,242.1,1057.3,242.5,1057.1
		 M220.2,1034.9v-36.5c0.9,1.5,1.8,3.2,2.9,5.3c2.3,4.6,3.5,8.3,3.9,10.9C227.3,1017.5,225,1024.2,220.2,1034.9 M220.2,998.3v36.5
		c-2.5,5.4-5.7,11.8-9.5,19.2c-11.3,21.9-20,43-26.1,63.1c1,0,1.8,0.3,2.2,0.7c0.6,0.5,0.9,1.2,1,2.2c0.1,1.1-0.5,3.6-1.9,7.5
		c-1.4,3.8-3.1,7.9-5.3,12c-2.2,4.1-4.4,7.5-6.6,10c-2.3,2.4-4.4,3.7-6.2,4c-2,0.3-4.1-0.7-6.1-2.7c-2.2-1.9-3.4-4.3-3.6-7
		c-0.9-8.3,3.7-24.2,13.7-47.6c10.1-23.5,23.7-48.4,40.8-74.7l-1.9,0.2c-18.4,2.1-35.3,5.5-50.7,10.1c-15.5,4.6-29.4,10.4-41.7,17.3
		l12.9,1.9c0.8,0.1,1.4,0.4,1.9,0.7c0.5,0.4,0.8,0.8,0.8,1.2c0.1,0.9-0.7,1.6-2.5,2.3c-1.8,0.6-4.9,1.2-9,1.6
		c-9.2,1.1-15.2,1.3-17.6,0.7c-2.4-0.8-3.9-2.7-4.2-6.1c-0.6-5.3,0.1-12,1.9-19.9c1.9-7.9,3.9-13.1,6.3-15.6
		c3.5-3.5,12.7-7.9,27.6-13c14.8-5.2,30.2-8.7,46.3-10.6c10.1-1.1,17.7-1.6,23.1-1.4c5.3,0.3,9,1.3,10.9,3
		C217.7,995,218.9,996.4,220.2,998.3 M220.2,1080.6c-1.6,2.8-2.9,5.7-4,8.8c-2.4,6.9-3.4,13.2-2.7,19.1c0.8,7.3,3,13.3,6.7,18
		V1080.6z"/>
	<path class="st0" d="M1287.3,777.3c5.7,0,11.4,1.5,16.9,4.5c5.6,2.9,9.9,7.2,13,12.7c3.1,5.5,4.7,11.4,4.7,17.4
		c0,6-1.6,11.6-4.7,17.2c-3.1,5.5-7.3,9.7-12.8,12.8c-5.5,3.1-11.2,4.6-17.2,4.6c-6,0-11.8-1.5-17.2-4.6c-5.5-3.1-9.8-7.3-12.8-12.8
		c-3.1-5.5-4.6-11.2-4.6-17.2c0-6,1.6-11.8,4.6-17.4c3.2-5.5,7.5-9.8,13-12.7C1275.8,778.8,1281.4,777.3,1287.3,777.3 M1287.3,783
		c-4.9,0-9.6,1.3-14.2,3.7c-4.6,2.5-8.2,6.1-10.7,10.7c-2.6,4.6-4,9.4-4,14.5c0,5,1.4,9.7,3.9,14.3c2.6,4.6,6.1,8.1,10.7,10.7
		c4.6,2.6,9.4,3.8,14.4,3.8c4.9,0,9.7-1.3,14.3-3.8c4.6-2.5,8.1-6.1,10.6-10.7c2.6-4.6,3.8-9.3,3.8-14.3c0-5-1.3-9.9-3.9-14.5
		c-2.6-4.6-6.2-8.2-10.8-10.7C1296.7,784.3,1292.1,783,1287.3,783 M1272.1,831h6v-15.9h3.6c2.1,0,3.6,0.4,4.8,1.3
		c1.6,1.2,3.6,4.1,6.3,8.7l3.3,5.9h7.3l-4.4-7.3c-2.2-3.5-4.1-5.9-5.6-7.4c-0.8-0.8-1.8-1.4-3.1-2c3.2-0.2,5.8-1.3,7.7-3.4
		c2-2,2.9-4.3,2.9-7.1c0-1.9-0.5-3.7-1.7-5.4c-1.3-1.7-2.8-3-4.7-3.7c-2-0.7-5.2-1-9.5-1h-12.8V831z M1278.1,810.1h7.3
		c3.4,0,5.8-0.6,7.1-1.6c1.3-1,1.9-2.4,1.9-4.1c0-1.1-0.3-2.1-0.9-2.9c-0.6-0.9-1.4-1.6-2.6-2c-1.1-0.4-3.1-0.6-6-0.6h-6.9V810.1z"
		/>
	<polygon class="st0" points="1103.6,177.9 1236.7,177.9 1236.7,312.8 1103.6,247.2 	"/>
	<polygon class="st1" points="1122.3,197.9 1216.7,197.9 1216.7,292.2 1122.3,246.6 	"/>
	<polygon class="st0" points="90.2,406.6 773.2,73.5 1446.6,406.6 1224.9,406.6 1224.9,845.8 316.4,845.8 316.4,406.6 	"/>
	<polygon class="st1" points="773.2,94.1 1363.5,387.8 1206.1,387.8 1206.1,826.4 333.9,826.4 333.9,387.8 170.2,387.8 	"/>
	<path class="st0" d="M698.1,519c2.8-15.6-10.3-25-19-25h-22.3c-11.5,0-20.2,11.6-20.2,17.2v31.2c0,11.7,10.3,17.8,20.2,17.2h30
		c11.3-6.2,11.9-16.7,11.3-25c-2.1,3.9-6,6.6-11.3,7.7h-30v-31.2h30C693.3,512.3,695.4,515.1,698.1,519"/>
	<path class="st0" d="M705.6,513.4c-0.5-19.6,4.3-19.6,14.1-20.2c13.1,0.6,23.5,0,30.5,0c16.9,0,16.9,10.7,16.9,17.9v44
		c1.2,1.6,2.1,3.3,3.8,5h-20.7l-3.2-5l-3.7,5h-19.8c-23.8-3.9-29.2-34.4-0.3-41h22.1v-8h-35.4C708.4,512.2,706.8,512.8,705.6,513.4
		 M726.2,535.7c-3.8,0.3-3.8,4.3,0,4h19v-4H726.2z"/>
	<path class="st0" d="M840,513.4c-0.7-19.6,4.4-19.6,14.1-20.2c13.5-0.2,23.2,0.4,30.3,0c17,0,17,17.8,17,17.8v43.8
		c1.2,1.7,2.1,3.3,3.7,5h-20.8l-3.1-5l-3.7,5h-17.2c-26.7,0-30.2-40.5-3-40.9h22.2v-8h-35.3C842.6,512.2,841.2,512.8,840,513.4
		 M860.4,535.7c-3.6,0.4-3.6,4.3,0,4.1h19.2v-4.1H860.4z"/>
	<path class="st0" d="M773.2,535.8h21.1c0,0,0,4.4,1.9,4.4h12.4c-12.4-8.8-35.3-15.7-35.3-28.4c0-18.9,16.9-18.9,21.1-18.9h20.3
		c11.2,0,19.3,12.3,19.3,18.9v8h-19.3c0,0,0-8-8.1-8h-12.2c1.9,4,39.6,20.9,39.6,28.4c0,6,3.6,19.5-19.3,19.5h-20.3
		C780.2,559.7,773.2,550.5,773.2,535.8"/>
	<path class="st0" d="M996.1,667.7c-0.5-18.4,4.2-18.4,13.6-19c13.1-0.2,22.3,0.3,29.3,0c16.2,0,16.2,16.8,16.2,16.8v41.2
		c1.2,1.7,2.1,3.1,3.6,4.8H1039l-3.1-4.8l-3.6,4.8h-16.6c-25.6,0-29.1-38.1-2.9-38.5h21.4v-7.5h-34
		C998.7,666.7,997.2,667.1,996.1,667.7 M1015.8,688.7c-3.4,0.3-3.4,4,0,3.9h18.6v-3.9H1015.8z"/>
	<path class="st0" d="M538.8,649v17.7h-37.6v6.9h27.3v15.6h-27.3v22.5H482v-45c0-17.7,12-17.7,19.2-17.7H538.8z"/>
	<path class="st0" d="M563.4,689.3h26.7v-15.6h-26.7v-6.9h37.2V649h-37.2c-12.2,0-19.5,0-19.5,17.8v29.1c0,15.9,7.4,15.9,19.5,15.9
		h37.2v-15.9h-37.2V689.3z"/>
	<path class="st0" d="M756.5,689.3h26.8v-15.6h-26.8v-6.9h37.4V649h-37.4c-12.1,0-19.4,0-19.4,17.8v29.1c0,15.9,7.4,15.9,19.4,15.9
		h37.4v-15.9h-37.4V689.3z"/>
	<path class="st0" d="M887.6,689.3h26.8v-15.6h-26.8v-6.9H925V649h-37.4c-12.1,0-19.5,0-19.5,17.8v29.1c0,15.9,7.4,15.9,19.5,15.9
		H925v-15.9h-37.4V689.3z"/>
	<path class="st0" d="M608.2,712.1h21.4v-45H646v6.9h21.5V667c0-17.7-21.5-21-37.9-15.2v-2.5h-21.4V712.1z"/>
	<path class="st0" d="M673.2,712.1h21.4v-45H711v6.9h21.5V667c0-17.7-21.5-21-37.8-15.2v-2.5h-21.4V712.1z"/>
	<path class="st0" d="M933.1,712.1h21.5v-45h16.3v6.9h21.4V667c0-17.7-21.4-21-37.7-15.2v-2.5h-21.5V712.1z"/>
	<path class="st0" d="M813,632.7v16.5h-10.4v17.7H813V696c0,7.2,9.1,15.9,21.6,15.9h26.9V696h-26.9v-29.1h26.9v-17.7h-26.9
		C822.6,649.2,815.6,637.3,813,632.7"/>
	<path class="st0" d="M803.2,175.4c8.1,11.8,22.4,3.3,15-8l-20.4-30.1c-10.6-19.8-40.6-19.6-49.2,0l-56.5,108.2
		c-8.6,12-9.5,23.8-7.1,38.5L565.1,403.2c-15.4-0.6-24.1,27.8-37.7,29.7c-21.2-7.6-32.9,13-37.8,22.7l-54.7,104.7
		c-15.3,29.3,3.9,53.3,35.3,53.3h101.3c32.8,1.5,47.5-30.3,35.2-55.9l-26.3-48c-2-4.2-4.4-9.6-10.3-9.6h-47.4
		c-10.6,0.2-12.2,17.2-0.5,17.2h41l27.8,47.3c8.4,14.1-1.7,30.2-15.8,30.2H471.6c-19.8,1.6-28.8-13.1-19.4-30.8l52.6-98.7
		c1.8-4.7,6.6-13.3,7.5-10.8c4.3,12.2,21.6,19.7,26.4,14.7l15.3,22.8c5,6.3,16.8-3.4,13.4-10.2l-9.6-15.2c-2.1-5,1.3-8.2,0.4-11.6
		c-2.7-4.4-17.4-6.3-12-11.8l6.1-6.1c10.2-0.2,23.2-12,31.6-26.3l120.9-111.3c8.4,3.3,11.5,3.3,30.9,2.7h86.8
		c12.1,0,18.5-5.2,32.7,6.6l108,106c0,13.3,10.5,21.5,20.7,25.5c4.8,2.3,14.9,9.4,13,12.4l-55.8,107.5c-14.4,28.1,4,53.1,34.7,53.1
		h102c30.1,0,48.6-29.4,33.5-55.9l-29.3-50.5c-1.9-3.5-6.9-5.3-12.4-5.3h-37.7c-7.4,0-11.9,2.6-11.9,8.8c0,6.3,3.8,8.9,12.1,8.9
		h36.5l22.3,39.7c10.6,19.6,6.2,34-13.4,36.8H983c-25.5,1.1-34-12.2-25.3-30l48.6-95.7c2.9-7.6,6,0.4,14.8-0.6
		c8.6-0.9,13.4-18.1,17.5-8l16.1,26.7c2.3,3.2,5.6,5.9,11.4,3.8c5.9-2.1,5.5-9.7,3.1-13.9l-20.2-33.2c-3.9-7.6-17.9-8.5-22.9-14.6
		c-7.7-8.8-12.2-7.8-11.4,1.3c-6.5,19.8-18.8-17.6-25.6-22.9l-10.5-2.1L870.9,295.3c-2.5-11.8-10-7.1-8.8-14.1
		c2.3-5.3,2.6-21.9-1.9-30.5l-27.5-50.9c-4.6-9.1-8.1-9.2-11.9-9.2h-45c-3.5,0-8.2,4.4-8.2,8.2c-0.2,4.8,2.9,10.1,7.9,10.1h43
		l29.1,56.6c-16.2-0.6-19.8,6.9-22.1,19.4H721.1c-3.8-9.3-5.2-16.7-18.8-17.9l59.6-118.5c6.5-13,17.9-10.1,22.1-1.7L803.2,175.4z"/>
</g>
</svg>
