<?xml version="1.0" encoding="utf-8"?>
<!-- Generator: Adobe Illustrator 28.2.0, SVG Export Plug-In . SVG Version: 6.00 Build 0)  -->
<svg version="1.1" id="Capa_1" xmlns="http://www.w3.org/2000/svg" xmlns:xlink="http://www.w3.org/1999/xlink" x="0px" y="0px"
	 viewBox="0 0 792 612" style="enable-background:new 0 0 792 612;" xml:space="preserve">
<style type="text/css">
	.st0{fill-rule:evenodd;clip-rule:evenodd;fill:#FDD000;}
	.st1{fill-rule:evenodd;clip-rule:evenodd;}
</style>
<g>
	<path class="st0" d="M703.5,488v-9.1c3.9-4.6,7.7-10.2,11.5-16.8c-4.6,2.7-8.5,5.1-11.5,7.2v-11.7c1.1-0.7,2.3-1.3,3.5-1.9
		c2.1-1.1,4.1-2.1,6-2.8c1.9-0.8,3.3-1.2,4-1.3c1-0.1,2.2,0.4,3.3,1.5c1.2,1.1,1.8,2.1,2,3.2c0,0.3-0.1,0.6-0.3,0.9
		c-0.2,0.3-0.6,0.7-1.3,1.1l-1.7,1.3l2.1,3.4c0.3,0.4,0.5,0.7,0.6,1c0.1,0.3,0.2,0.6,0.2,0.8c0.1,0.8-0.9,3.1-3,7.2
		c-2.1,4-3.1,7.1-2.8,9.2c0.1,0.8,0.4,1.4,0.9,1.7c0.5,0.4,1.3,0.5,2.2,0.4c1.4-0.2,3-1.1,5-2.8c1.9-1.7,4.6-4.6,8-8.8l0.6,4.4
		c-5.9,8.4-10.1,13.8-12.5,16.2c-2.4,2.5-4.6,3.8-6.4,4c-1.5,0.2-2.8-0.2-4-1.3c-1.1-1-1.8-2.4-2-4.2c-0.2-1.6,0.2-5,1.2-10.2l0-0.2
		C707.1,483.6,705.2,486,703.5,488 M703.5,457.7v11.7c-3.6,2.5-6.2,4.5-7.7,6.2c-2.8,3-4.1,6.1-3.7,9.3c0.1,0.8,0.3,1.5,0.7,2
		c0.4,0.5,0.8,0.7,1.3,0.6c1.6-0.2,4.4-2.7,8.6-7.5c0.3-0.3,0.6-0.7,0.8-1v9.1c-1.5,1.8-2.8,3.3-4,4.6c-2.6,2.7-4.6,4.1-6,4.2
		c-1.3,0.1-3.1-1.4-5.5-4.5c-1.4-1.9-2.4-3.7-3.1-5.5c-0.9,1.3-1.7,2.5-2.5,3.5v-7c0.5-0.5,1-1.1,1.5-1.7c0.1-1.8,0.7-3.7,1.8-5.9
		c1.4-2.9,3.5-5.8,6.3-8.7c2.1-2.2,4.3-4.2,6.8-6C700.3,459.8,701.9,458.7,703.5,457.7 M682.5,450.9v-10.6c0.1-0.1,0.2-0.3,0.4-0.3
		c0.4-0.3,1.6-0.5,3.4-0.7c0.7-0.1,1.2,0,1.6,0.1c0.4,0.2,0.6,0.4,0.6,0.7c0.1,0.6-0.2,1.4-0.7,2.7c-0.6,1.2-1.4,2.6-2.4,4.1
		l-0.2,0.3C684.2,448.7,683.3,450,682.5,450.9 M609.2,482.5c1.4-1.1,2.7-2.3,3.9-3.3c2.7-2.7,4-4.8,3.8-6.3c0-0.4-0.1-0.7-0.2-0.8
		c-0.2-0.2-0.3-0.3-0.6-0.2c-1.9,0.2-4.2,1.6-6.9,4.2v-7.6c2.4-1.3,5-2.1,7.5-2.4c2.4-0.3,4.2-0.1,5.5,0.5c1.2,0.6,1.9,1.6,2.1,3.2
		c0.3,3.4-1.6,7.4-6,11.9c-2.6,2.7-5.6,5-9.1,7V482.5z M682.5,440.3v10.6c-1.4,1.5-2.5,2.4-3.4,2.5c-0.8,0.1-1.4,0.1-1.9,0
		c-0.5-0.1-0.7-0.3-0.8-0.6c0-0.1,0.6-1.4,2-3.7c1.4-2.3,2.4-4.7,3.2-7C681.9,441.2,682.2,440.7,682.5,440.3 M682.5,483.2
		c-1.2,1.3-2.4,2.4-3.5,3.4c-2.7,2.3-4.7,3.5-6.3,3.7c-1.4,0.2-2.6-0.2-3.6-1c-0.9-0.8-1.5-1.9-1.7-3.4c0-0.5-0.1-1,0-1.5
		c0-0.6,0.1-1.2,0.2-2c3.6-4,6.4-7.8,8.4-11.2c1.9-3.4,2.8-6.1,2.6-8c-0.1-1-0.5-1.6-1.1-2.1c-0.6-0.4-1.4-0.6-2.5-0.4
		c-1.5,0.2-2.8,0.7-4.1,1.6c-1.2,0.8-2.6,2.4-4.2,4.3c-3.1,3.9-5.2,7.6-6.3,10.9c-0.7,2.1-1.1,4.2-1.3,6.4c-2.7,3.1-4.7,5.3-6.2,6.7
		c-2,1.9-3.5,2.9-4.5,3.1c-0.8,0.1-1.5-0.1-2-0.6c-0.5-0.5-0.8-1.2-0.9-2.2c-0.1-1.3,0.3-3.2,1.2-5.5c0.9-2.4,2.3-4.7,3.9-7
		c0.5-0.7,1.2-1.5,2.1-2.5c1.5-1.8,2.2-3.1,2.1-3.9c-0.2-2.3-0.8-3.9-1.8-4.9c-0.9-1-2.3-1.4-4-1.2c-0.5,0.1-1.4,0.2-2.6,0.4
		c-0.3,0.1-0.6,0.1-0.8,0.2l-8.1,1.5c0.3-0.8,0.5-1.5,0.7-2c0.1-0.5,0.2-0.9,0.1-1.1c0-0.4-0.2-0.7-0.5-0.9
		c-0.3-0.2-0.6-0.3-0.9-0.3c-2.1,0.2-4.5,2.3-7.2,6c-2.7,3.8-3.9,7-3.7,9.7c0.1,0.7,0.4,1.4,0.8,1.9c0.5,0.6,1.1,1.1,2,1.4l-5.3,6.7
		c-2,2.1-4,3.9-5.9,5.4c-3.2,2.5-6.1,4-8.6,4.4v8.4c2.3-0.9,4.7-2.4,7.1-4.4c3.4-2.9,7.2-7.2,11.3-13c1.6-2,3.6-4.7,6.2-8.1l1.1-1.6
		c1.3-0.4,2.7-0.8,4.2-1.2c1.4-0.5,3.3-1.1,5.5-1.9c-3.2,4.3-5.5,8-6.7,11.1c-1.2,3.1-1.6,6-1.3,8.9c0.2,2.3,1.1,4,2.5,5.4
		c1.4,1.4,3,2,4.7,1.8c2-0.2,4.5-1.9,7.5-5.1c2.2-2.3,5-5.7,8.1-10c0.5,3.6,1.6,6.4,3.2,8.3c1.8,2.2,4,3.1,6.8,2.8
		c2.7-0.3,5.4-1.9,8.4-4.9c1.4-1.4,3-3.2,4.6-5.5V483.2z M601.5,487.7c3-1.8,5.5-3.5,7.7-5.2v6.1c-2.3,1.3-4.9,2.5-7.6,3.5l0.1,0.5
		c0.2,2.3,1,4,2.3,5.2c1.3,1.2,2.9,1.7,4.9,1.5c0,0,0.2,0,0.3-0.1v8.4c-1.4,0.5-2.7,0.8-4,1c-3.6,0.4-6.5-0.5-8.7-2.6
		c-1.9-1.9-3.1-4.6-3.8-8.3c-3,3.9-6,7.1-8.7,9.6c-3.9,3.6-7.3,5.5-10,5.9c-1.9,0.2-3.5-0.2-4.6-1.1c-1.2-1-1.9-2.5-2.1-4.6
		c-0.2-1.7-0.1-3.6,0.3-5.8c0.4-2.2,1-4.4,1.9-6.8c-0.3,0.3-0.6,0.7-1,1c-0.2,0.1-0.3,0.3-0.5,0.5c-4.3,6.1-8.3,10.7-11.8,13.7
		c-2.4,2-4.8,3.5-7.1,4.4v-8.3c2.5-0.4,5.3-1.9,8.6-4.4c2.8-2.2,5.6-5,8.6-8.4v-0.2c2.2-3,4.2-5.8,5.8-8.3c1.6-2.5,3.1-4.9,4.4-7.2
		c-1.1-0.1-2-0.1-2.9-0.1c-0.9,0.1-1.6,0.1-2.3,0.2l-2,0.3c-0.3,0-0.6,0-0.7-0.1c-0.2-0.1-0.3-0.2-0.3-0.5c-0.1-0.7,0.5-2.2,1.7-4.6
		c1.2-2.4,2.3-4,3.4-5c0.7-0.7,1.8-1.3,3.4-1.7c1.5-0.5,3.7-0.9,6.5-1.3c0.3-0.5,0.6-1.1,1.1-1.9c2.9-5.2,6.2-8.1,10-8.5
		c0.6,0,1.1,0.1,1.5,0.3c0.5,0.3,0.7,0.6,0.7,1c0,0.4,0,0.9-0.2,1.3c-0.1,0.4-0.4,0.9-0.7,1.5l-3.5,5.5c1.6-0.1,2.8,0,3.8,0.2
		c1,0.2,1.5,0.5,1.5,1c0,0.5-0.4,1.7-1.5,3.6c-1,1.9-2.2,3.8-3.7,5.6c-0.9,1-1.7,1.8-2.5,2.2c-0.8,0.4-1.8,0.7-3.1,0.9
		c-1,0.1-1.6,0.2-2,0.2c-0.4,0-0.7,0.1-1,0.1c-2.4,3.9-4.2,7.8-5.3,11.9c-1.2,4.1-1.6,7.5-1.3,10.3c0.1,1,0.4,1.7,0.9,2.2
		c0.5,0.5,1.2,0.7,2,0.6c1.3-0.1,3.3-1.4,5.9-3.8c1.8-1.6,4.1-3.9,6.7-6.8c0.1-2,0.6-3.9,1.2-5.9c1.1-3.2,3-6.5,5.6-9.7
		c2.6-3.1,5.4-5.7,8.3-7.5c0.5-0.3,1.1-0.6,1.6-0.9v7.6c-0.3,0.2-0.5,0.5-0.7,0.7C605.4,479.8,603.1,483.5,601.5,487.7 M549,495.6
		c3.5-2,6.5-4.3,9.1-7c4.4-4.5,6.4-8.5,6-11.9c-0.2-1.5-0.9-2.6-2.1-3.2c-1.3-0.6-3-0.8-5.4-0.5c-2.6,0.3-5.1,1.1-7.5,2.4v7.6
		c2.7-2.6,5-4,6.9-4.2c0.3,0,0.4,0,0.6,0.2c0.1,0.2,0.2,0.5,0.2,0.8c0.2,1.6-1.1,3.7-3.8,6.3c-1.1,1.1-2.4,2.2-3.9,3.3V495.6z
		 M549,475.4v7.6c-0.2,0.2-0.5,0.5-0.7,0.7c-3,3.1-5.4,6.7-7,11c3-1.8,5.5-3.6,7.7-5.3v6.1c-2.3,1.3-4.8,2.5-7.6,3.5l0.1,0.5
		c0.3,2.3,1,4,2.3,5.2c1.3,1.2,2.9,1.7,4.9,1.5c0.1,0,0.2,0,0.3,0v8.3c-1.4,0.5-2.7,0.9-4,1c-3.6,0.4-6.5-0.5-8.7-2.6
		c-1.9-1.8-3.1-4.6-3.7-8.1c-2.9,3.9-5.4,7-7.5,9.2c-3.1,3.1-5.6,4.8-7.6,5.1c-1.7,0.2-3.3-0.4-4.7-1.7c-1.4-1.4-2.3-3.2-2.5-5.5
		c-0.3-2.9,0.2-5.8,1.3-8.9c1.3-3,3.5-6.7,6.7-11c-2.3,0.8-4.2,1.5-5.6,1.9c-1.5,0.5-2.9,0.8-4.2,1.2l-1.1,1.6
		c-3.2,4.5-5.8,7.7-7.4,9.7c-3.7,5.1-6.8,8.9-9.3,11.6c-3,3.2-5.5,4.9-7.5,5.1c-1.7,0.2-3.3-0.4-4.7-1.8c-1.4-1.4-2.3-3.2-2.5-5.5
		c-0.3-2.8,0.2-5.8,1.3-8.8c1.3-3,3.5-6.7,6.7-11.1c-2.3,0.8-4.2,1.5-5.6,1.9c-1.5,0.4-2.9,0.9-4.2,1.2l-1.1,1.6
		c-2.5,3.4-4.6,6.2-6.2,8.1c-4,5.7-7.8,10.1-11.2,13c-2.4,2-4.8,3.5-7.2,4.4v-8.3c2.5-0.4,5.3-1.8,8.6-4.4c1.9-1.5,3.9-3.3,5.8-5.4
		l5.4-6.7c-0.8-0.4-1.5-0.9-1.9-1.4c-0.4-0.5-0.7-1.2-0.8-1.9c-0.3-2.7,0.9-6,3.6-9.7c2.8-3.8,5.2-5.8,7.2-6c0.4,0,0.7,0.1,0.9,0.3
		c0.3,0.2,0.5,0.5,0.5,0.9c0,0.2,0,0.6-0.2,1.1c-0.1,0.5-0.4,1.2-0.6,2l8.1-1.5c0.1,0,0.4-0.1,0.7-0.1c1.2-0.3,2.1-0.4,2.6-0.5
		c1.8-0.2,3.1,0.2,4.1,1.2c0.9,1,1.5,2.7,1.7,5c0.1,0.8-0.5,2.1-2.1,3.9c-0.9,1-1.7,1.9-2.1,2.5c-1.6,2.3-2.9,4.6-3.9,7
		c-1,2.4-1.4,4.2-1.2,5.5c0.1,1,0.4,1.7,0.9,2.2c0.5,0.5,1.1,0.6,2,0.5c1-0.1,2.4-1.1,4.5-3.1c1.5-1.5,3.7-3.8,6.5-7.1l3.8-4.7
		c-0.8-0.4-1.5-0.9-1.9-1.4c-0.5-0.6-0.7-1.2-0.8-1.9c-0.3-2.7,0.9-6,3.7-9.7c2.8-3.8,5.2-5.8,7.2-6.1c0.4-0.1,0.6,0,0.9,0.3
		c0.3,0.2,0.5,0.5,0.5,0.8c0,0.2,0,0.6-0.1,1.1c-0.1,0.5-0.3,1.2-0.6,2l8.1-1.5c0.2,0,0.5,0,0.8-0.2c1.2-0.2,2.1-0.4,2.6-0.4
		c1.8-0.2,3.1,0.2,4,1.2c1,1,1.5,2.7,1.8,4.9c0.1,0.8-0.6,2.2-2.1,3.9c-1,1-1.6,1.9-2.1,2.6c-1.6,2.2-2.9,4.6-3.9,6.9
		c-1,2.4-1.4,4.2-1.2,5.6c0.1,1,0.4,1.7,0.9,2.2c0.4,0.4,1.1,0.6,2,0.5c1-0.1,2.4-1.2,4.5-3c1.3-1.3,3.2-3.3,5.6-6
		c0.2-2,0.6-3.9,1.2-5.9c1.1-3.2,3-6.4,5.6-9.7c2.7-3.2,5.4-5.7,8.3-7.5C548,476,548.5,475.7,549,475.4 M448.6,507.3
		c3.5-2,6.5-4.3,9.1-7c4.4-4.5,6.4-8.5,6-11.9c-0.2-1.5-0.9-2.6-2.1-3.2c-1.3-0.6-3.1-0.7-5.5-0.5c-2.5,0.3-5,1.1-7.5,2.4v7.6
		c2.7-2.6,5-4,6.9-4.3c0.2,0,0.4,0,0.5,0.2c0.1,0.2,0.2,0.5,0.2,0.9c0.2,1.6-1.1,3.7-3.8,6.3c-1.1,1.1-2.4,2.2-3.9,3.3V507.3z
		 M448.6,487.1v7.6c-0.2,0.2-0.5,0.5-0.7,0.7c-3,3.1-5.3,6.8-7,11c3-1.8,5.5-3.6,7.6-5.3v6.1c-2.3,1.4-4.9,2.5-7.6,3.5l0.1,0.5
		c0.3,2.3,1,4,2.4,5.2c1.2,1.2,2.9,1.7,4.9,1.5c0,0,0.2,0,0.2,0v8.3c-1.3,0.5-2.6,0.9-4,1c-3.6,0.4-6.5-0.4-8.7-2.5
		c-1.8-1.8-3.1-4.5-3.7-8v-8.3c0.2-1.1,0.6-2.2,0.9-3.4c1.1-3.3,3-6.5,5.6-9.7c2.6-3.2,5.4-5.7,8.3-7.5
		C447.6,487.7,448.1,487.4,448.6,487.1 M432.2,466.5v-7.4c0.1,0.4,0.3,0.8,0.4,1.4C432.7,462,432.6,464,432.2,466.5 M432.2,459.1
		v7.4c-0.3,2.5-1,5.4-2,8.7c-1.9,6.7-4.7,14.3-8.3,22.9c0.2,0,0.8-0.1,1.6-0.2c0.8-0.1,1.5-0.2,1.9-0.3c0.5-0.1,1.1-0.2,1.6-0.2
		c0.6,0,1.2-0.1,1.8-0.1c-0.9,2.4-1.9,4.8-3,7c-1,2.2-1.8,3.8-2.4,4.7c-0.7,1-3.5,2.4-8.6,4.3l-0.3,0.2
		c-6.2,10.9-12.2,19.8-17.9,26.9c-5.8,7-10,10.7-12.6,11c-0.6,0.1-1.2-0.1-1.6-0.4c-0.5-0.4-0.7-0.8-0.7-1.3
		c-0.4-3.2,0.9-6.9,3.6-11.2c2.8-4.3,6.1-7.1,9.9-8.6c1.5-2,2.9-4.1,4.4-6.4c1.5-2.3,3.2-4.9,4.9-7.8c-3.2,0.8-6,1.3-8.3,1.8
		c-2.3,0.4-4.5,0.8-6.5,1c-1.3,0.1-2.3,0.1-3-0.2c-0.7-0.3-1.1-0.7-1.2-1.3c-0.4-4,1.4-7.2,5.3-9.9c3.9-2.6,11.4-5.3,22.2-8.1
		c3.1-7,5.2-12.6,6.6-16.8c1.4-4.3,2-7.3,1.8-9c-0.1-0.6-0.4-1-0.8-1.2c-0.4-0.2-1.1-0.3-2.1-0.2c-4,0.5-9.6,2.1-16.6,4.8
		c-7,2.7-14.4,6.1-22.3,10.3l4.9-0.7l1.6-0.2c0.5-0.1,0.7,0,1,0.2c0.3,0.2,0.4,0.4,0.4,0.7c0.1,0.6-1.4,1.6-4.7,2.9
		c-1.4,0.6-2.5,1-3.3,1.4c-1.3,0.6-3,1.4-5,2.5c-2,1.1-3.3,1.7-3.9,1.7c-0.9,0.1-1.5-0.1-2.1-0.5c-0.5-0.5-0.8-1.1-0.9-1.9
		c-0.1-0.8,0.1-2.3,0.7-4.6c0.5-2.3,1.3-4.7,2.2-7.2c1-2.5,2-4.5,3.1-6.1c1-1.6,2.3-2.8,3.7-3.7c1.1-0.7,3.1-1.7,6.1-3.1
		c2.9-1.3,6.1-2.7,9.7-4c5.5-2.1,10.6-3.8,15.2-5c4.7-1.3,8.9-2.1,12.7-2.6c4.3-0.5,7.2-0.5,8.8,0.1
		C431,457.1,431.8,457.9,432.2,459.1 M432.2,508.6c-0.3,2.2-0.5,4.3-0.2,6.4c0,0.7,0.2,1.3,0.2,1.9V508.6z M280.3,546v-8.3
		c2.5-0.4,5.4-1.8,8.6-4.4c2.2-1.7,4.4-3.8,6.7-6.3c1.8-6,3.8-10.6,5.9-13.9c2-3.2,4.2-5,6.3-5.2c1.3-0.2,2.4-0.1,3.5,0.3
		c1.1,0.3,1.6,0.8,1.7,1.4c0.1,0.6-0.5,2.1-1.7,4.2c-1.2,2.1-3,5-5.5,8.6c-0.7,1-1.2,2.1-1.5,3.2c-0.3,1.1-0.5,2.1-0.4,3.1l0,0.3
		c5.1-7.7,10.1-14,14.9-19.1c4.8-5.1,8.2-7.7,10.2-8c0.7-0.1,1.5,0.5,2.3,1.8c0.8,1.3,1.3,2.6,1.5,4.2c0.2,1.7-0.7,3.8-2.6,6.4
		c-1,1.3-1.7,2.4-2.2,3.2c-1.3,2.3-2.3,4.5-3.1,6.7c-0.8,2.1-1.1,3.6-1,4.4c0,0.7,0.2,1.2,0.7,1.5c0.3,0.4,0.8,0.5,1.5,0.4
		c0.8-0.1,2.2-1.1,4.2-3.1c2-2,4.9-5.2,8.7-9.7l0.6,4.6c-6.1,8.7-10.4,14.2-12.7,16.5c-2.4,2.3-4.6,3.6-6.5,3.8
		c-1.6,0.2-2.9-0.3-4-1.5c-1.1-1.2-1.8-2.8-2-4.8c-0.2-2.1,0.2-4.6,1.3-7.8c1.1-3.2,2.8-7,5.4-11.6c-3.9,4.8-7.8,10.1-11.5,16.2
		c-3.7,6-6.1,9.1-7.1,9.2c-1.6,0.2-3-0.9-4.2-3.2c-1-1.8-1.7-4.1-2.2-6.9c-3.1,4-6,7.2-8.6,9.5C285.1,543.6,282.7,545.1,280.3,546
		 M280.3,526.9c3.5-2,6.5-4.3,9.1-6.9c4.4-4.6,6.4-8.5,6-11.9c-0.2-1.5-0.8-2.6-2.1-3.2c-1.2-0.6-3-0.7-5.4-0.5
		c-2.6,0.3-5,1.1-7.5,2.4v7.6c2.8-2.6,5-4,6.9-4.3c0.2,0,0.4,0.1,0.5,0.2c0.2,0.2,0.2,0.5,0.3,0.8c0.2,1.5-1.1,3.7-3.8,6.3
		c-1.1,1-2.4,2.1-3.9,3.3V526.9z M280.3,506.8v7.6c-0.2,0.2-0.5,0.5-0.7,0.7c-3,3.1-5.3,6.8-7,11c3-1.8,5.6-3.5,7.7-5.2v6.1
		c-2.3,1.4-4.8,2.5-7.5,3.6l0.1,0.5c0.3,2.3,1,4,2.3,5.2c1.3,1.2,2.9,1.7,4.9,1.5c0.1,0,0.2,0,0.2,0v8.3c-1.3,0.5-2.6,0.8-4,1
		c-3.6,0.4-6.5-0.5-8.7-2.6c-2.2-2.1-3.5-5.4-4-9.8c-0.3-3.3,0-6.5,1.2-9.8c1.1-3.2,3-6.5,5.6-9.7c2.6-3.2,5.4-5.7,8.3-7.5
		C279.3,507.3,279.9,507,280.3,506.8 M215,553.9v-8.5c0.3-0.1,0.5-0.3,0.8-0.5c1.2-0.8,2.3-1.9,3.3-3.2c0-0.1,0-0.3-0.1-0.6
		c-0.2-1.2-0.3-2-0.4-2.5c-0.2-1.8,0-4,0.6-6.6c0.5-2.6,1.4-5.5,2.7-8.8c-2.6,1.5-5,3.3-6.9,5.3V516c2.4-1.4,4.5-2.2,6.5-2.4
		c1.7-0.2,3.3,0,4.9,0.6c1.5,0.6,2.3,1.3,2.4,2.1c0,0.2-0.1,0.5-0.5,1.1c-0.4,0.6-0.7,1.1-1,1.5l0.2,0c1.1-0.1,1.9,0.1,2.5,0.8
		c0.5,0.6,0.9,1.9,1,3.6c0.3,2.4,0.1,5-0.5,7.8c-0.6,2.8-1.6,5.7-3,8.9c1.5-0.2,3.2-1.2,5-2.9c1.9-1.7,4.4-4.4,7.3-8.2l0.5,5.1
		c-3.1,4-5.7,6.8-7.7,8.6c-2.1,1.7-4,2.7-5.8,2.9c-0.5,0.1-0.9,0.1-1.2,0.1c-0.3,0-0.6,0.1-0.9,0.1c-1.9,2.6-3.8,4.7-5.8,6.1
		C217.6,552.8,216.3,553.5,215,553.9 M215,516v12.5c-1.3,1.3-2.5,2.7-3.4,4.2c-2.6,3.9-3.7,7.2-3.4,10.2c0.2,1.3,0.6,2.3,1.3,2.9
		c0.7,0.6,1.7,0.8,3,0.7c0.9-0.1,1.7-0.4,2.6-0.9v8.5c-0.8,0.3-1.5,0.4-2.3,0.5c-3,0.4-5.6-0.7-7.9-3.1c-1.9-2.1-3.2-4.6-3.8-7.9
		c-6.9,9.5-11.8,14.4-14.9,14.8c-1.6,0.2-2.8-0.3-3.7-1.4c-0.8-1.1-1.4-3.1-1.7-6.1c-0.2-1.6-0.2-3.1-0.3-4.6c0-1.6,0-3.1,0.1-4.7
		c-2.4,3.2-4.5,6-6.4,8.2v-8.2c1.3-1.5,2.9-3.2,4.5-5.2c0.1-0.1,0.2-0.2,0.4-0.4c2.2-2.6,3.7-5.6,4.4-8.9c-3.7,1.9-6.8,3.7-9.3,5.4
		V521c2.7-1.6,4.9-2.5,6.7-2.7c0.9-0.1,1.8,0,2.5,0.3c0.7,0.3,1.4,0.9,2.1,1.6c4.3-10,7.6-17.4,10-22.1c2.5-4.8,4.2-7.1,5.1-7.3
		c0.9-0.1,1.7,0.3,2.5,1.1c0.9,0.9,1.3,1.9,1.4,3.1c0.3,2.7-3.1,10.8-10.3,24.5l-1.3,2.3c-1.6,3.2-2.9,7.2-3.8,11.9
		c-0.9,4.8-1.2,8.6-0.9,11.5c0,0.7,0.3,1.2,0.7,1.6c0.5,0.4,1,0.6,1.5,0.6c1.4-0.2,4.8-3.3,10.1-9.5c0,0,0.2-0.2,0.2-0.2
		c0.2-1.8,0.6-3.7,1.4-5.8c1.2-3.4,3-6.6,5.4-9.5c2.1-2.5,4.4-4.5,6.9-6.2C214.6,516.2,214.8,516.1,215,516 M174.2,521v11.2
		c-2.6,1.7-4.5,3.4-5.9,4.9c-2.6,3-3.7,6.4-3.3,10.1c0.1,0.6,0.2,1,0.3,1.2c0.1,0.2,0.3,0.3,0.6,0.2c0.9-0.1,2.3-1.1,4.3-3.1
		c1.1-1.1,2.4-2.5,4-4.2v8.2c-1.4,1.8-2.6,3.2-3.7,4.4c-2.4,2.8-4.2,4.1-5.2,4.2c-1.4,0.2-2.9-1.3-4.7-4.4c-1.2-2.3-2.1-5-2.7-7.9
		c-2.3,2.7-4.2,4.8-5.8,6.1c-2,1.7-4,2.7-5.8,2.9c-0.5,0.1-0.9,0.1-1.2,0.1c-0.3,0-0.7,0.1-0.9,0.1c-1.8,2.6-3.7,4.7-5.7,6.1
		c-1.3,0.9-2.5,1.6-3.8,2v-8.5c0.2-0.2,0.5-0.3,0.8-0.6c1.2-0.8,2.3-1.9,3.4-3.2c0-0.1-0.1-0.4-0.1-0.6c-0.2-1.2-0.4-2.1-0.4-2.5
		c-0.2-1.8,0-4,0.6-6.5c0.6-2.6,1.5-5.5,2.7-8.8c-2.6,1.5-4.9,3.2-6.9,5.3v-12.5c2.3-1.4,4.5-2.3,6.5-2.5c1.7-0.2,3.3,0,4.9,0.7
		c1.5,0.6,2.3,1.3,2.4,2.1c0,0.2-0.2,0.6-0.6,1.2c-0.4,0.6-0.7,1.1-0.9,1.5l0.1,0c1.1-0.1,1.9,0.2,2.5,0.8c0.5,0.6,0.9,1.9,1.1,3.6
		c0.3,2.4,0.1,4.9-0.5,7.7c-0.6,2.8-1.6,5.7-3,8.9c1.5-0.2,3.2-1.2,5-2.8c1.5-1.3,3.2-3.2,5.3-5.7c0-1.8,0.6-3.5,1.5-5.4
		c1.3-2.4,3.2-4.9,6.1-7.4c3-2.8,6-5.1,8.9-6.8L174.2,521z M134.6,525.4v12.5c-1.3,1.3-2.4,2.7-3.5,4.2c-2.6,3.8-3.7,7.2-3.4,10.1
		c0.1,1.3,0.6,2.3,1.3,2.9c0.7,0.6,1.7,0.8,3,0.7c0.8-0.1,1.7-0.4,2.6-0.8v8.5c-0.8,0.2-1.6,0.4-2.3,0.5c-3,0.3-5.6-0.7-7.9-3.1
		c-0.3-0.3-0.6-0.6-0.8-0.9v-22.7c0.9-1.8,2.1-3.5,3.5-5.1c2-2.5,4.3-4.6,6.9-6.2C134.1,525.6,134.4,525.5,134.6,525.4 M123.5,514.4
		v-18.1c0.5,0.8,0.9,1.6,1.5,2.6c1.1,2.3,1.7,4.1,1.9,5.4C127,505.8,125.9,509.2,123.5,514.4 M123.5,496.3v18.1
		c-1.3,2.7-2.8,5.8-4.7,9.5c-5.6,10.9-9.9,21.3-12.9,31.2c0.5,0,0.9,0.1,1.1,0.4c0.3,0.3,0.4,0.6,0.5,1.1c0.1,0.5-0.3,1.8-0.9,3.7
		c-0.7,1.9-1.5,3.9-2.6,5.9c-1.1,2-2.2,3.7-3.3,4.9c-1.1,1.2-2.2,1.9-3.1,2c-1,0.1-2-0.3-3-1.3c-1.1-1-1.7-2.1-1.8-3.4
		c-0.5-4.1,1.8-12,6.8-23.6c5-11.6,11.7-23.9,20.2-37l-1,0.1c-9.1,1.1-17.5,2.7-25.1,5c-7.7,2.3-14.5,5.1-20.6,8.6l6.4,0.9
		c0.4,0,0.7,0.2,1,0.4c0.2,0.2,0.4,0.4,0.4,0.6c0,0.4-0.4,0.8-1.3,1.1c-0.9,0.3-2.4,0.6-4.4,0.8c-4.6,0.5-7.5,0.6-8.7,0.3
		c-1.2-0.4-1.9-1.4-2.1-3c-0.3-2.6,0-5.9,0.9-9.8c0.9-3.9,1.9-6.5,3.1-7.7c1.7-1.8,6.3-3.9,13.6-6.4c7.3-2.6,15-4.3,22.9-5.2
		c5-0.6,8.8-0.8,11.4-0.7c2.6,0.1,4.4,0.6,5.4,1.5C122.3,494.7,122.9,495.4,123.5,496.3 M123.5,537.1c-0.8,1.4-1.5,2.8-2,4.4
		c-1.2,3.4-1.7,6.5-1.3,9.4c0.4,3.6,1.5,6.6,3.3,8.9V537.1z"/>
	<path class="st0" d="M651.4,387c2.8,0,5.7,0.7,8.4,2.2c2.8,1.4,4.9,3.6,6.4,6.3c1.5,2.7,2.3,5.6,2.3,8.6c0,3-0.8,5.8-2.3,8.5
		c-1.5,2.7-3.6,4.8-6.3,6.3c-2.7,1.5-5.6,2.3-8.5,2.3c-3,0-5.8-0.7-8.5-2.3c-2.7-1.5-4.9-3.6-6.3-6.3c-1.5-2.7-2.3-5.5-2.3-8.5
		c0-3,0.8-5.9,2.3-8.6c1.6-2.7,3.7-4.9,6.4-6.3C645.7,387.8,648.5,387,651.4,387 M651.4,389.8c-2.4,0-4.7,0.6-7,1.8
		c-2.3,1.3-4.1,3-5.3,5.3c-1.3,2.3-2,4.7-2,7.2c0,2.5,0.7,4.8,1.9,7.1c1.3,2.3,3,4,5.3,5.3c2.3,1.3,4.6,1.9,7.1,1.9
		c2.4,0,4.8-0.6,7.1-1.9c2.3-1.3,4-3,5.3-5.3c1.3-2.3,1.9-4.6,1.9-7.1c0-2.5-0.6-4.9-1.9-7.2c-1.3-2.3-3.1-4-5.3-5.3
		C656,390.5,653.7,389.8,651.4,389.8 M643.9,413.6h3v-7.8h1.8c1,0,1.8,0.2,2.4,0.6c0.8,0.6,1.8,2,3.1,4.3l1.6,2.9h3.6l-2.2-3.6
		c-1.1-1.7-2-2.9-2.7-3.6c-0.4-0.4-0.9-0.7-1.6-1c1.6-0.1,2.9-0.7,3.8-1.7c1-1,1.4-2.1,1.4-3.5c0-0.9-0.3-1.8-0.8-2.7
		c-0.6-0.9-1.4-1.5-2.3-1.8c-1-0.3-2.6-0.5-4.7-0.5h-6.3V413.6z M646.8,403.2h3.6c1.7,0,2.9-0.3,3.5-0.8c0.6-0.5,0.9-1.2,0.9-2.1
		c0-0.5-0.2-1-0.4-1.4c-0.3-0.4-0.7-0.8-1.3-1c-0.6-0.2-1.5-0.3-3-0.3h-3.4V403.2z"/>
	<polygon class="st1" points="560.5,90.5 626.3,90.5 626.3,157.2 560.5,124.8 	"/>
	<polygon class="st0" points="569.8,100.4 616.4,100.4 616.4,147.1 569.8,124.5 	"/>
	<polygon class="st1" points="59.2,203.6 397,38.9 730.2,203.6 620.5,203.6 620.5,420.9 171.1,420.9 171.1,203.6 	"/>
	<polygon class="st0" points="397,49.1 689.1,194.3 611.2,194.3 611.2,411.3 179.8,411.3 179.8,194.3 98.8,194.3 	"/>
	<path class="st1" d="M359.9,259.2c1.4-7.7-5.1-12.4-9.4-12.4h-11c-5.7,0-10,5.7-10,8.5v15.4c0,5.8,5.1,8.8,10,8.5h14.8
		c5.6-3,5.9-8.2,5.6-12.4c-1.1,1.9-3,3.3-5.6,3.8h-14.8v-15.4h14.8C357.6,255.9,358.6,257.3,359.9,259.2"/>
	<path class="st1" d="M363.6,256.5c-0.2-9.7,2.1-9.7,7-10c6.5,0.3,11.6,0,15.1,0c8.4,0,8.4,5.3,8.4,8.8v21.8c0.6,0.8,1,1.6,1.9,2.5
		h-10.2l-1.6-2.5l-1.8,2.5h-9.8c-11.8-1.9-14.4-17-0.2-20.3h10.9v-3.9h-17.5C365,255.9,364.2,256.2,363.6,256.5 M373.8,267.5
		c-1.9,0.2-1.9,2.1,0,2h9.4v-2H373.8z"/>
	<path class="st1" d="M430.1,256.5c-0.3-9.7,2.2-9.7,7-10c6.7-0.1,11.5,0.2,15,0c8.4,0,8.4,8.8,8.4,8.8V277c0.6,0.9,1,1.6,1.8,2.5
		h-10.3l-1.5-2.5l-1.8,2.5h-8.5c-13.2,0-15-20.1-1.5-20.2h11v-3.9h-17.5C431.4,255.9,430.7,256.2,430.1,256.5 M440.2,267.5
		c-1.8,0.2-1.8,2.1,0,2h9.5v-2H440.2z"/>
	<path class="st1" d="M397,267.6h10.4c0,0,0,2.2,0.9,2.2h6.1c-6.1-4.4-17.5-7.8-17.5-14c0-9.3,8.4-9.3,10.4-9.3h10
		c5.5,0,9.6,6.1,9.6,9.3v4h-9.6c0,0,0-4-4-4h-6c0.9,2,19.6,10.3,19.6,14c0,3,1.8,9.6-9.6,9.6h-10C400.5,279.4,397,274.8,397,267.6"
		/>
	<path class="st1" d="M507.3,332.8c-0.3-9.1,2.1-9.1,6.7-9.4c6.5-0.1,11,0.1,14.5,0c8,0,8,8.3,8,8.3v20.4c0.6,0.8,1,1.6,1.8,2.4
		h-9.8l-1.5-2.4l-1.8,2.4h-8.2c-12.6,0-14.4-18.9-1.4-19h10.6v-3.7h-16.8C508.6,332.3,507.9,332.5,507.3,332.8 M517.1,343.2
		c-1.7,0.1-1.7,2,0,1.9h9.2v-1.9H517.1z"/>
	<path class="st1" d="M281.1,323.5v8.7h-18.6v3.4h13.5v7.7h-13.5v11.1H253v-22.3c0-8.7,5.9-8.7,9.5-8.7H281.1z"/>
	<path class="st1" d="M293.3,343.5h13.2v-7.7h-13.2v-3.4h18.4v-8.8h-18.4c-6,0-9.7,0-9.7,8.8v14.4c0,7.9,3.7,7.9,9.7,7.9h18.4v-7.9
		h-18.4V343.5z"/>
	<path class="st1" d="M388.8,343.5H402v-7.7h-13.3v-3.4h18.5v-8.8h-18.5c-6,0-9.6,0-9.6,8.8v14.4c0,7.9,3.6,7.9,9.6,7.9h18.5v-7.9
		h-18.5V343.5z"/>
	<path class="st1" d="M453.7,343.5h13.3v-7.7h-13.3v-3.4h18.5v-8.8h-18.5c-6,0-9.7,0-9.7,8.8v14.4c0,7.9,3.7,7.9,9.7,7.9h18.5v-7.9
		h-18.5V343.5z"/>
	<path class="st1" d="M315.4,354.7H326v-22.3h8.1v3.4h10.6v-3.4c0-8.8-10.6-10.4-18.8-7.5v-1.2h-10.6V354.7z"/>
	<path class="st1" d="M347.6,354.7h10.6v-22.3h8.1v3.4h10.6v-3.4c0-8.8-10.6-10.4-18.7-7.5v-1.2h-10.6V354.7z"/>
	<path class="st1" d="M476.2,354.7h10.6v-22.3h8.1v3.4h10.6v-3.4c0-8.8-10.6-10.4-18.7-7.5v-1.2h-10.6V354.7z"/>
	<path class="st1" d="M416.8,315.5v8.2h-5.2v8.7h5.2v14.4c0,3.6,4.5,7.9,10.7,7.9h13.3v-7.9h-13.3v-14.4h13.3v-8.7h-13.3
		C421.5,323.7,418,317.8,416.8,315.5"/>
	<path class="st1" d="M411.9,89.3c4,5.8,11.1,1.7,7.4-3.9l-10.1-14.9c-5.2-9.8-20.1-9.7-24.3,0L357,123.9c-4.2,5.9-4.7,11.8-3.5,19
		l-59.3,59c-7.6-0.3-11.9,13.7-18.7,14.7c-10.5-3.8-16.3,6.4-18.7,11.2l-27,51.8c-7.6,14.5,1.9,26.4,17.4,26.4h50.1
		c16.2,0.7,23.5-15,17.4-27.7l-13-23.8c-1-2.1-2.2-4.8-5.1-4.8h-23.4c-5.3,0.1-6,8.5-0.2,8.5h20.3l13.7,23.4
		c4.1,7-0.8,14.9-7.8,14.9h-51.2c-9.8,0.8-14.2-6.5-9.6-15.2l26-48.8c0.9-2.3,3.2-6.6,3.7-5.3c2.1,6,10.7,9.8,13.1,7.3l7.5,11.3
		c2.5,3.1,8.3-1.7,6.6-5l-4.8-7.5c-1.1-2.5,0.6-4.1,0.2-5.7c-1.3-2.2-8.6-3.1-5.9-5.8l3-3c5-0.1,11.5-5.9,15.6-13l59.8-55.1
		c4.2,1.7,5.7,1.7,15.3,1.3h43c6,0,9.2-2.6,16.2,3.2l53.4,52.4c0,6.6,5.2,10.6,10.2,12.6c2.4,1.1,7.4,4.7,6.4,6.1L480,279.7
		c-7.1,13.9,2,26.2,17.2,26.2h50.5c14.9,0,24-14.6,16.6-27.7l-14.5-25c-0.9-1.7-3.4-2.6-6.1-2.6H525c-3.6,0-5.9,1.3-5.9,4.4
		c0,3.1,1.9,4.4,6,4.4h18.1l11,19.7c5.2,9.7,3.1,16.8-6.6,18.2h-46.8c-12.6,0.5-16.8-6-12.5-14.8l24-47.3c1.4-3.7,3,0.2,7.3-0.3
		c4.2-0.4,6.6-9,8.7-4l7.9,13.2c1.1,1.6,2.7,2.9,5.6,1.9c2.9-1,2.7-4.8,1.6-6.9l-10-16.4c-1.9-3.8-8.8-4.2-11.3-7.2
		c-3.8-4.4-6-3.8-5.6,0.6c-3.2,9.8-9.3-8.7-12.7-11.3l-5.2-1.1l-53.3-55.2c-1.2-5.8-4.9-3.5-4.4-7c1.2-2.6,1.3-10.8-0.9-15.1
		l-13.6-25.2c-2.3-4.5-4-4.6-5.9-4.6h-22.3c-1.7,0-4,2.2-4,4.1c-0.1,2.4,1.5,5,3.9,5h21.2l14.4,28c-8-0.3-9.8,3.4-10.9,9.6h-51.6
		c-1.9-4.6-2.6-8.2-9.3-8.9l29.5-58.6c3.2-6.4,8.8-5,10.9-0.8L411.9,89.3z"/>
</g>
</svg>
