<?xml version="1.0" encoding="utf-8"?>
<!-- Uploaded to: SVG Repo, www.svgrepo.com, Generator: SVG Repo Mixer Tools -->
<svg fill="#000000" width="800px" height="800px" viewBox="0 0 32 32" version="1.1" xmlns="http://www.w3.org/2000/svg">
<title>trash-can</title>
<path d="M30 7.249h-5.598l-3.777-5.665c-0.137-0.202-0.366-0.334-0.625-0.334h-8c-0 0-0.001 0-0.001 0-0.259 0-0.487 0.131-0.621 0.331l-0.002 0.003-3.777 5.665h-5.599c-0.414 0-0.75 0.336-0.75 0.75s0.336 0.75 0.75 0.75v0h3.315l1.938 21.319c0.036 0.384 0.356 0.682 0.747 0.682 0 0 0 0 0.001 0h16c0 0 0.001 0 0.001 0 0.39 0 0.71-0.298 0.745-0.679l0-0.003 1.938-21.319h3.316c0.414 0 0.75-0.336 0.75-0.75s-0.336-0.75-0.75-0.75v0zM12.401 2.75h7.196l2.999 4.499h-13.195zM23.314 29.25h-14.63l-1.863-20.5 18.358-0.001zM11 11.25c-0.414 0-0.75 0.336-0.75 0.75v0 14c0 0.414 0.336 0.75 0.75 0.75s0.75-0.336 0.75-0.75v0-14c-0-0.414-0.336-0.75-0.75-0.75v0zM16 11.25c-0.414 0-0.75 0.336-0.75 0.75v0 14c0 0.414 0.336 0.75 0.75 0.75s0.75-0.336 0.75-0.75v0-14c-0-0.414-0.336-0.75-0.75-0.75v0zM21 11.25c-0.414 0-0.75 0.336-0.75 0.75v0 14c0 0.414 0.336 0.75 0.75 0.75s0.75-0.336 0.75-0.75v0-14c-0-0.414-0.336-0.75-0.75-0.75v0z"></path>
</svg>